# xmcd CD database file
#
# Track frame offsets:
#	182
#	20095
#	38240
#	53055
#	66162
#	78710
#	91897
#	107197
#	122535
#	139165
#	154030
#	171482
#	187400
#	201315
#
# Disc length: 2857 seconds
#
# Revision: 0
# Processed by: cddbd v1.4PL0 Copyright (c) Steve Scherf et al.
# Submitted via: Feurio! 1.65 - http://www.feurio.com
#
DISCID=ce0b270e
DTITLE=Nancy Wood - Lieder der Straße
DYEAR=1900
DGENRE=Comedy
TTITLE0=Lieder der Straße
TTITLE1=König der Nacht
TTITLE2=Der Träumer
TTITLE3=Geh' zu ihr
TTITLE4=Wir sitzen alle in einem Boot
TTITLE5=Ein schöner Tag
TTITLE6=Asphalt Cowboy
TTITLE7=Keine Rose blüht auf dem Asphalt
TTITLE8=Marianna
TTITLE9=Ein Blatt Papier
TTITLE10=Sie ist eine Lady
TTITLE11=Sein bester Freund
TTITLE12=Herbstwind
TTITLE13=Oh denk' daran
EXTD=
EXTT0=
EXTT1=
EXTT2=
EXTT3=
EXTT4=
EXTT5=
EXTT6=
EXTT7=
EXTT8=
EXTT9=
EXTT10=
EXTT11=
EXTT12=
EXTT13=
PLAYORDER=
